<svg width="175" height="78" viewBox="0 0 175 78" fill="none" xmlns="http://www.w3.org/2000/svg">
<path d="M24.9098 39H23.4325L27.7053 27.3636H29.1598L33.4325 39H31.9553L28.478 29.2045H28.3871L24.9098 39ZM25.4553 34.4545H31.4098V35.7045H25.4553V34.4545ZM35.245 39V27.3636H39.1768C40.0897 27.3636 40.8359 27.5284 41.4155 27.858C41.9988 28.1837 42.4306 28.625 42.7109 29.1818C42.9912 29.7386 43.1314 30.3598 43.1314 31.0455C43.1314 31.7311 42.9912 32.3542 42.7109 32.9148C42.4344 33.4754 42.0064 33.9223 41.4268 34.2557C40.8473 34.5852 40.1049 34.75 39.1996 34.75H36.3814V33.5H39.1541C39.7791 33.5 40.281 33.392 40.6598 33.1761C41.0386 32.9602 41.3132 32.6686 41.4837 32.3011C41.6579 31.9299 41.745 31.5114 41.745 31.0455C41.745 30.5795 41.6579 30.1629 41.4837 29.7955C41.3132 29.428 41.0367 29.1402 40.6541 28.9318C40.2715 28.7197 39.764 28.6136 39.1314 28.6136H36.6541V39H35.245ZM53.0376 27.3636H54.4467V35.0682C54.4467 35.8636 54.2592 36.5739 53.8842 37.1989C53.513 37.8201 52.9884 38.3106 52.3104 38.6705C51.6323 39.0265 50.8369 39.2045 49.924 39.2045C49.0111 39.2045 48.2157 39.0265 47.5376 38.6705C46.8596 38.3106 46.3331 37.8201 45.9581 37.1989C45.5869 36.5739 45.4013 35.8636 45.4013 35.0682V27.3636H46.8104V34.9545C46.8104 35.5227 46.9354 36.0284 47.1854 36.4716C47.4354 36.911 47.7914 37.2576 48.2536 37.5114C48.7195 37.7614 49.2763 37.8864 49.924 37.8864C50.5717 37.8864 51.1286 37.7614 51.5945 37.5114C52.0604 37.2576 52.4164 36.911 52.6626 36.4716C52.9126 36.0284 53.0376 35.5227 53.0376 34.9545V27.3636ZM57.2607 39V27.3636H64.2834V28.6136H58.6697V32.5455H63.9197V33.7955H58.6697V37.75H64.3743V39H57.2607ZM73.1868 30.2727C73.1186 29.697 72.8421 29.25 72.3572 28.9318C71.8724 28.6136 71.2777 28.4545 70.5732 28.4545C70.058 28.4545 69.6072 28.5379 69.2209 28.7045C68.8383 28.8712 68.5391 29.1004 68.3232 29.392C68.111 29.6837 68.005 30.0152 68.005 30.3864C68.005 30.697 68.0788 30.964 68.2266 31.1875C68.3781 31.4072 68.5713 31.5909 68.8061 31.7386C69.041 31.8826 69.2872 32.0019 69.5447 32.0966C69.8023 32.1875 70.0391 32.2614 70.255 32.3182L71.4368 32.6364C71.7398 32.7159 72.0769 32.8258 72.4482 32.9659C72.8232 33.1061 73.1811 33.2973 73.522 33.5398C73.8667 33.7784 74.1508 34.0852 74.3743 34.4602C74.5978 34.8352 74.7095 35.2955 74.7095 35.8409C74.7095 36.4697 74.5447 37.0379 74.2152 37.5455C73.8894 38.053 73.4122 38.4564 72.7834 38.7557C72.1584 39.0549 71.3989 39.2045 70.505 39.2045C69.6716 39.2045 68.95 39.0701 68.3402 38.8011C67.7341 38.5322 67.2569 38.1572 66.9084 37.6761C66.5637 37.1951 66.3686 36.6364 66.3232 36H67.7777C67.8156 36.4394 67.9633 36.803 68.2209 37.0909C68.4822 37.375 68.8118 37.5871 69.2095 37.7273C69.611 37.8636 70.0429 37.9318 70.505 37.9318C71.0429 37.9318 71.5258 37.8447 71.9538 37.6705C72.3819 37.4924 72.7209 37.2462 72.9709 36.9318C73.2209 36.6136 73.3459 36.2424 73.3459 35.8182C73.3459 35.4318 73.2379 35.1174 73.022 34.875C72.8061 34.6326 72.522 34.4356 72.1697 34.2841C71.8175 34.1326 71.4368 34 71.0277 33.8864L69.5959 33.4773C68.6868 33.2159 67.9671 32.8428 67.4368 32.358C66.9065 31.8731 66.6413 31.2386 66.6413 30.4545C66.6413 29.803 66.8175 29.2348 67.1697 28.75C67.5258 28.2614 68.0031 27.8826 68.6016 27.6136C69.2038 27.3409 69.8762 27.2045 70.6186 27.2045C71.3686 27.2045 72.0353 27.339 72.6186 27.608C73.2019 27.8731 73.6641 28.2367 74.005 28.6989C74.3497 29.161 74.5315 29.6856 74.5504 30.2727H73.1868ZM76.3899 28.6136V27.3636H85.1172V28.6136H81.4581V39H80.049V28.6136H76.3899ZM86.4098 39H84.9325L89.2053 27.3636H90.6598L94.9325 39H93.4553L89.978 29.2045H89.8871L86.4098 39ZM86.9553 34.4545H92.9098V35.7045H86.9553V34.4545ZM101.245 27.3636H102.927L106.881 37.0227H107.018L110.972 27.3636H112.654V39H111.336V30.1591H111.222L107.586 39H106.313L102.677 30.1591H102.563V39H101.245V27.3636ZM115.957 39H114.479L118.752 27.3636H120.207L124.479 39H123.002L119.525 29.2045H119.434L115.957 39ZM116.502 34.4545H122.457V35.7045H116.502V34.4545ZM135.519 27.3636V39H134.156L127.815 29.8636H127.701V39H126.292V27.3636H127.656L134.019 36.5227H134.133V27.3636H135.519ZM139.748 27.3636V39H138.339V27.3636H139.748ZM138.43 26.1818L139.816 23.5455H141.384L139.612 26.1818H138.43ZM143.05 39H141.573L145.846 27.3636H147.3L151.573 39H150.096L146.619 29.2045H146.528L143.05 39ZM143.596 34.4545H149.55V35.7045H143.596V34.4545Z" fill="white"/>
<path d="M83.6215 52.2068H80.9155V57.7164H94.4453V52.2068H91.7393V53.9893H89.0334V52.2068H86.3274V53.9893H83.6215V52.2068Z" fill="white"/>
<path d="M94.4453 59.1748H80.9155V61.2814H84.8843C84.4713 64.4358 82.954 66.4303 80.9155 68.5736H94.4453C91.7012 65.966 90.6206 64.4109 90.4765 61.2814H94.4453V59.1748Z" fill="white"/>
<path d="M96.7904 70.194H78.2096V72.1386H80.3743L76.9468 77H98.0532C96.7209 75.087 95.9897 74.0156 95.1668 72.1386H96.7904V70.194Z" fill="white"/>
<path d="M65.7623 64.0362V61.6055L4.06674 61.7676L3.88634 3.59275L171.114 3.4307V61.6055L108.877 61.4435V63.8742L174 64.0362V1H1.1804L1 64.0362H65.7623Z" fill="white"/>
<path d="M83.6215 52.2068H80.9155V57.7164H94.4453V52.2068H91.7393V53.9893H89.0334V52.2068H86.3274V53.9893H83.6215V52.2068Z" stroke="white"/>
<path d="M94.4453 59.1748H80.9155V61.2814H84.8843C84.4713 64.4358 82.954 66.4303 80.9155 68.5736H94.4453C91.7012 65.966 90.6206 64.4109 90.4765 61.2814H94.4453V59.1748Z" stroke="white"/>
<path d="M96.7904 70.194H78.2096V72.1386H80.3743L76.9468 77H98.0532C96.7209 75.087 95.9897 74.0156 95.1668 72.1386H96.7904V70.194Z" stroke="white"/>
<path d="M65.7623 64.0362V61.6055L4.06674 61.7676L3.88634 3.59275L171.114 3.4307V61.6055L108.877 61.4435V63.8742L174 64.0362V1H1.1804L1 64.0362H65.7623Z" stroke="white"/>
</svg>
